<svg data-name="Layer 1" id="el_dBXDco80Z_" viewBox="0 0 421 416" xmlns="http://www.w3.org/2000/svg">
	<style>@-webkit-keyframes el_xJNmahrLFIt_j3ejhnDp0_Animation{0%{-webkit-transform: rotate(0deg);transform: rotate(0deg);}100%{-webkit-transform: rotate(-360deg);transform: rotate(-360deg);}}@keyframes el_xJNmahrLFIt_j3ejhnDp0_Animation{0%{-webkit-transform: rotate(0deg);transform: rotate(0deg);}100%{-webkit-transform: rotate(-360deg);transform: rotate(-360deg);}}@-webkit-keyframes el_dqzQ2RG0s8v_IxLXQk-FT_Animation{0%{-webkit-transform: rotate(0deg);transform: rotate(0deg);}100%{-webkit-transform: rotate(-360deg);transform: rotate(-360deg);}}@keyframes el_dqzQ2RG0s8v_IxLXQk-FT_Animation{0%{-webkit-transform: rotate(0deg);transform: rotate(0deg);}100%{-webkit-transform: rotate(-360deg);transform: rotate(-360deg);}}@-webkit-keyframes el_17WIY-M201b_bK2hRmynh_Animation{0%{-webkit-transform: rotate(0deg);transform: rotate(0deg);}100%{-webkit-transform: rotate(-360deg);transform: rotate(-360deg);}}@keyframes el_17WIY-M201b_bK2hRmynh_Animation{0%{-webkit-transform: rotate(0deg);transform: rotate(0deg);}100%{-webkit-transform: rotate(-360deg);transform: rotate(-360deg);}}@-webkit-keyframes el_viV5ezXrPiS_lNj7FX80aS_Animation{0%{-webkit-transform: rotate(0deg);transform: rotate(0deg);}100%{-webkit-transform: rotate(-360deg);transform: rotate(-360deg);}}@keyframes el_viV5ezXrPiS_lNj7FX80aS_Animation{0%{-webkit-transform: rotate(0deg);transform: rotate(0deg);}100%{-webkit-transform: rotate(-360deg);transform: rotate(-360deg);}}@-webkit-keyframes el_W0Tyb5bY58y_9bi46iLdHPv_Animation{0%{-webkit-transform: rotate(0deg);transform: rotate(0deg);}100%{-webkit-transform: rotate(-360deg);transform: rotate(-360deg);}}@keyframes el_W0Tyb5bY58y_9bi46iLdHPv_Animation{0%{-webkit-transform: rotate(0deg);transform: rotate(0deg);}100%{-webkit-transform: rotate(-360deg);transform: rotate(-360deg);}}@-webkit-keyframes el_Q6QFDbhX5uC_0E5o0rDOFuW_Animation{0%{-webkit-transform: rotate(0deg);transform: rotate(0deg);}100%{-webkit-transform: rotate(-360deg);transform: rotate(-360deg);}}@keyframes el_Q6QFDbhX5uC_0E5o0rDOFuW_Animation{0%{-webkit-transform: rotate(0deg);transform: rotate(0deg);}100%{-webkit-transform: rotate(-360deg);transform: rotate(-360deg);}}@-webkit-keyframes el_Cj0cguqU3Cu_nZJRuBKoGyS_Animation{0%{-webkit-transform: rotate(0deg);transform: rotate(0deg);}100%{-webkit-transform: rotate(-360deg);transform: rotate(-360deg);}}@keyframes el_Cj0cguqU3Cu_nZJRuBKoGyS_Animation{0%{-webkit-transform: rotate(0deg);transform: rotate(0deg);}100%{-webkit-transform: rotate(-360deg);transform: rotate(-360deg);}}@-webkit-keyframes el_Ft2vWoT3gGe_jNVwP7THH_Animation{0%{-webkit-transform: rotate(0deg);transform: rotate(0deg);}100%{-webkit-transform: rotate(-360deg);transform: rotate(-360deg);}}@keyframes el_Ft2vWoT3gGe_jNVwP7THH_Animation{0%{-webkit-transform: rotate(0deg);transform: rotate(0deg);}100%{-webkit-transform: rotate(-360deg);transform: rotate(-360deg);}}@-webkit-keyframes el_AWoBafQ61vX_4RXRcP7b5_Animation{0%{-webkit-transform: rotate(0deg);transform: rotate(0deg);}100%{-webkit-transform: rotate(-360deg);transform: rotate(-360deg);}}@keyframes el_AWoBafQ61vX_4RXRcP7b5_Animation{0%{-webkit-transform: rotate(0deg);transform: rotate(0deg);}100%{-webkit-transform: rotate(-360deg);transform: rotate(-360deg);}}@-webkit-keyframes el_OwiSSNfHkud_kSJVlDhMq_Animation{0%{-webkit-transform: rotate(0deg);transform: rotate(0deg);}100%{-webkit-transform: rotate(-360deg);transform: rotate(-360deg);}}@keyframes el_OwiSSNfHkud_kSJVlDhMq_Animation{0%{-webkit-transform: rotate(0deg);transform: rotate(0deg);}100%{-webkit-transform: rotate(-360deg);transform: rotate(-360deg);}}@-webkit-keyframes el_zGXDhqvGdS__eEYSfC2c7_Animation{0%{-webkit-transform: rotate(0deg);transform: rotate(0deg);}100%{-webkit-transform: rotate(-360deg);transform: rotate(-360deg);}}@keyframes el_zGXDhqvGdS__eEYSfC2c7_Animation{0%{-webkit-transform: rotate(0deg);transform: rotate(0deg);}100%{-webkit-transform: rotate(-360deg);transform: rotate(-360deg);}}@-webkit-keyframes el_UEwg_Q7-1a_iDZ1NeN1f_Animation{0%{-webkit-transform: rotate(0deg);transform: rotate(0deg);}100%{-webkit-transform: rotate(-360deg);transform: rotate(-360deg);}}@keyframes el_UEwg_Q7-1a_iDZ1NeN1f_Animation{0%{-webkit-transform: rotate(0deg);transform: rotate(0deg);}100%{-webkit-transform: rotate(-360deg);transform: rotate(-360deg);}}@-webkit-keyframes el_JhSx-vuz3t_X20_bEWcc_Animation{0%{-webkit-transform: rotate(0deg);transform: rotate(0deg);}100%{-webkit-transform: rotate(360deg);transform: rotate(360deg);}}@keyframes el_JhSx-vuz3t_X20_bEWcc_Animation{0%{-webkit-transform: rotate(0deg);transform: rotate(0deg);}100%{-webkit-transform: rotate(360deg);transform: rotate(360deg);}}@-webkit-keyframes el_SpPO2ucv9XX_NR3dQR5He_Animation{0%{-webkit-transform: rotate(0deg);transform: rotate(0deg);}100%{-webkit-transform: rotate(360deg);transform: rotate(360deg);}}@keyframes el_SpPO2ucv9XX_NR3dQR5He_Animation{0%{-webkit-transform: rotate(0deg);transform: rotate(0deg);}100%{-webkit-transform: rotate(360deg);transform: rotate(360deg);}}#el_dBXDco80Z_ *{-webkit-animation-duration: 6s;animation-duration: 6s;-webkit-animation-iteration-count: infinite;animation-iteration-count: infinite;-webkit-animation-play-state: paused;animation-play-state: paused;-webkit-animation-timing-function: cubic-bezier(0, 0, 1, 1);animation-timing-function: cubic-bezier(0, 0, 1, 1);}#el_VunMM9sSx0{fill: #7a1b53;-webkit-transform: translate(-469.53px, -157px);transform: translate(-469.53px, -157px);}#el_d7Q7-_zK2z{fill: #7a1b53;-webkit-transform: translate(-469.53px, -157px);transform: translate(-469.53px, -157px);}#el_mKFqaqNXFQ{fill: #7a1b53;-webkit-transform: translate(-469.53px, -157px);transform: translate(-469.53px, -157px);}#el_FkhFvituAc{fill: #f38435;}#el_24cLk2JBmw{fill: #f38435;}#el_12XUKHTeUT{fill: #7a1b53;}#el_y33NbwOUwM{fill: #7a1b53;}#el_3Du6mMUah6{fill: #70c9cb;}#el_OFaHUiRBKrM{fill: #70c9cb;}#el_Oe2YnB3gGy_{fill: #7a1b53;}#el_jpz6rxMwx01{fill: #7a1b53;}#el_9w6s_eBYtgY{fill: #f38435;}#el_AdYt8Ot-5Nt{fill: #f38435;}#el_mUBFJcgHES2{fill: #7a1b53;}#el_-2jZzOIuL6S{fill: #7a1b53;}#el_k75Aoxmtsh6{fill: #7a1b53;}#el_ilsyAUfWrJh{fill: #ea96c0;}#el_fJn8Vx-y7r3{fill: #7a1b53;}#el_XdTsvpkxbwj{fill: #7a1b53;}#el_remr3LZEBTY{fill: #70c9cb;}#el_uIhEb1yUaCc{fill: #70c9cb;}#el_zFkB8y3ZZzd{fill: #7a1b53;}#el_BpxxPVM2EAW{fill: #7a1b53;}#el_PwF1intwPiF{fill: #f38435;}#el_WcDlI4RyGbP{fill: #f38435;}#el_GT1XwiCzZVn{fill: #7a1b53;}#el_FhNUDuQlb52{fill: #7a1b53;}#el_j8EBK3yQMc3{fill: #7a1b53;}#el_cTcDp5UjrIr{fill: #ea96c0;}#el_h1m7BPA7lkN{fill: #7a1b53;}#el_XEpghhZusyk{fill: #7a1b53;}#el_OzykwolYDel{fill: #70c9cb;}#el_S5oi65U30DS{fill: #70c9cb;}#el_IOK9M-Xc88E{fill: #7a1b53;}#el_sEc4o2OVqsZ{fill: #7a1b53;}#el_I6PWacPSIxK{fill: #f38435;}#el_-9qS_-BiG2r{fill: #f38435;}#el_D9Vo5qoDGnc{fill: #7a1b53;}#el_VtEub_nA2r-{fill: #7a1b53;}#el_SBGMWUvsZ7j{fill: #7a1b53;}#el_i_of_4jwTPS{fill: #ea96c0;}#el_RVR6NJnkvpd{fill: #7a1b53;}#el_YCBjWoWHsvH{fill: #7a1b53;}#el_4spyWbYYEY0{fill: #70c9cb;}#el_yO9et_oGn7H{fill: #70c9cb;}#el_jwCW9mdlt3s{fill: #7a1b53;}#el_H7tLRhAm4Ux{fill: #7a1b53;}#el_ur1kHrMLlQy{fill: #f38435;}#el_HnoUxiAveNd{fill: #f38435;}#el_366ajCNNO5R{fill: #7a1b53;}#el_W0kMC18ZqVb{fill: #7a1b53;}#el_bfm2zT_Kjxo{fill: #7a1b53;}#el_6IYpmPOQeE9{fill: #ea96c0;}#el_qp2X2FFmW7o{fill: #7a1b53;}#el_SO8d9FObt4c{fill: #7a1b53;}#el_2hcSa_n0nlJ{fill: #70c9cb;}#el_i3_9tV4AEoE{fill: #70c9cb;}#el_Kb8C1Lqx1Sg{fill: #7a1b53;}#el_rYapcaOdJJF{fill: #7a1b53;}#el_PXvvKmr1UgG{fill: #f38435;}#el_rAJ85UT1Rpu{fill: #f38435;}#el_UQpoFn9Tfaw{fill: #7a1b53;}#el_6lPhnRl5N8C{fill: #7a1b53;}#el_cfza9o8UflB{fill: #7a1b53;}#el_LWafzEFm-OQ{fill: #ea96c0;}#el_3-BxPNgOReh{fill: #7a1b53;}#el_fgIXsgp_2Bw{fill: #7a1b53;}#el_aXkWLhir4mK{fill: #70c9cb;}#el_G9eQDDI17Eh{fill: #70c9cb;}#el_2DAXce9gnqs{fill: #7a1b53;}#el_2KZ-iyejA1W{fill: #7a1b53;}#el_-ReT9ByPOio{fill: #f38435;}#el_7zd0j4OK8Mo{fill: #f38435;}#el_WDdIpZlMFKS{fill: #7a1b53;}#el_K8CjFHRhapX{fill: #7a1b53;}#el_nt5z6VmcI-J{fill: #7a1b53;}#el_O-6AnDaSozy{fill: #ea96c0;}#el_7NjLBE0tGT0{fill: #7a1b53;}#el_PLYXX1I0jTX{fill: #7a1b53;}#el_3xWR4cEOSVz{fill: #70c9cb;}#el_Jsz_G4IRC9C{fill: #70c9cb;}#el_PgygQuedaOv{fill: #7a1b53;}#el_WAPK9nzK2pP{fill: #7a1b53;}#el_m9d4HeA4Soh{fill: #f38435;}#el_uZT4a-cFOHG{fill: #f38435;}#el_wKZHNv5xu3x{fill: #7a1b53;}#el_X-Bnsybc_12{fill: #7a1b53;}#el_BRTx-auXjWZ{fill: #7a1b53;}#el_7ze1_YuAOGM{fill: #ea96c0;}#el_5B7YPzAumSO{fill: #7a1b53;}#el_bIyWdCeEI2w{fill: #7a1b53;}#el_6ZAm3_vsAS8{fill: #70c9cb;}#el_vpi0b5m87M6{fill: #70c9cb;}#el_SS5GDgPb9Hg{fill: #7a1b53;}#el_qGicnaKCunt{fill: #7a1b53;}#el_fBhzlT-D9_A{fill: #f38435;}#el_mugeB31Fcac{fill: #f38435;}#el_aNX07pJnynM{fill: #7a1b53;}#el_1gfvbxvPcTo{fill: #7a1b53;}#el_DOkIec6soW1{fill: #7a1b53;}#el_lTx8NcCut8l{fill: #ea96c0;}#el_xzmTBFoXVIy{fill: #7a1b53;}#el_xLgFIYL0c4T{fill: #7a1b53;}#el_5vPFC4WYBc-{fill: #70c9cb;}#el_ZC1i0O_SiFe{fill: #70c9cb;}#el_KjPqJbHuwF3{fill: #7a1b53;}#el_kMzQNiii_b1{fill: #7a1b53;}#el_BU1JsUtmZlb{fill: #f38435;}#el_Thp_A_kxwYE{fill: #f38435;}#el_qJ1L1WsyJQL{fill: #7a1b53;}#el_n1s0RJi8SP-{fill: #7a1b53;}#el_zBdfi86Yw-u{fill: #7a1b53;}#el_xINfrrHjWJw{fill: #ea96c0;}#el_OMYvmip3Zrd{fill: #7a1b53;}#el_Xmy97n-Ohrm{fill: #7a1b53;}#el_7QF2iSz-sQ3{fill: #70c9cb;}#el_2Pcu4oc_Mda{fill: #70c9cb;}#el_YqMjmf117Or{fill: #7a1b53;}#el_bmIPYsrnmag{fill: #7a1b53;}#el_ptV77_skxkT{fill: #f38435;}#el_Jpf4UhVggFx{fill: #f38435;}#el_Oie09zVdeCN{fill: #7a1b53;}#el_TgvuvZRXL_1{fill: #7a1b53;}#el_xdcUnzNZIpY{fill: #7a1b53;}#el_DDt8zSYZWig{fill: #ea96c0;}#el_qxSIYNnOKhu{fill: #7a1b53;}#el_mFyjiWiHj4o{fill: #7a1b53;}#el_Am0lCim8zRN{fill: #70c9cb;}#el_x3kH5o2r7H7{fill: #70c9cb;}#el_plyZNpbtlRB{fill: #7a1b53;}#el_tdu-UclNgKM{fill: #7a1b53;}#el_AlAIDeyuT_e{fill: #f38435;}#el_R6CWS7sIaZQ{fill: #f38435;}#el_Y6HnPuxQaxw{fill: #7a1b53;}#el_5kGt45Ktc0N{fill: #7a1b53;}#el_hVgYiUjZUGw{fill: #7a1b53;}#el_iRbcnQbk2lM{fill: #ea96c0;}#el_5ijUbNroH4Q{fill: #7a1b53;}#el_k4kOGy2mLlo{fill: #7a1b53;}#el_7XTes8jc4i3{fill: #70c9cb;}#el_qUjnuBqQeSq{fill: #70c9cb;}#el_hDCgB3Yu_US{fill: #7a1b53;}#el_Flo0i0LwDaw{fill: #7a1b53;}#el_nW1JCGoz3Er{fill: #f38435;}#el_7aJHDg20VYY{fill: #f38435;}#el_kKrRbix7QCZ{fill: #7a1b53;}#el_8qGuN88buxx{fill: #7a1b53;}#el_2y9NlmiOh_k{fill: #7a1b53;}#el_0W78EjYnAn3{fill: #ea96c0;}#el_i1_hDWdIlUR{fill: #7a1b53;}#el_-10l7p92RSa{fill: #7a1b53;}#el_YEbk-FCX1_h{fill: #7a1b53;}#el_Vj6bUpksqs6{fill: #7a1b53;}#el_YMOLwIES7BQ{fill: #7a1b53;}#el_A09r66f00eb{fill: #7a1b53;}#el_kZweAW-EpXS{fill: #7a1b53;}#el_QFDFTbz160b{fill: #7a1b53;}#el_JvBYh76MDZI{fill: #7a1b53;}#el_fKhUyTCMShH{fill: #7a1b53;}#el_5TjyKvLWMu1{fill: #7a1b53;}#el_ucv-0Kg2bi3{fill: #7a1b53;}#el_iDrFawEb03h{fill: #7a1b53;}#el_tDu6wR0JdmT{fill: #7a1b53;-webkit-transform: translate(-469.53px, -157px);transform: translate(-469.53px, -157px);}#el_GqjRVzIPvPZ{fill: #7a1b53;}#el_trGZQULjUwM{fill: #7a1b53;}#el_sGKlB_IUQfN{fill: #7a1b53;-webkit-transform: translate(-469.53px, -157px);transform: translate(-469.53px, -157px);}#el_-fNLcHdv1gj{fill: #7a1b53;}#el_PQOkwFiE-dF{fill: #7a1b53;}#el_Jc4vjruEUA2{fill: #7a1b53;}#el_yDTTcJQ4PZg{fill: #7a1b53;-webkit-transform: translate(-469.53px, -157px);transform: translate(-469.53px, -157px);}#el_HavFaffXpnR{fill: #7a1b53;}#el_eLbz8c7s_qr{fill: #7a1b53;-webkit-transform: translate(-469.53px, -157px);transform: translate(-469.53px, -157px);}#el_vvQIkBS6SFd{fill: #7a1b53;-webkit-transform: translate(-469.53px, -157px);transform: translate(-469.53px, -157px);}#el_b9mh8Vow0lv{fill: #7a1b53;-webkit-transform: translate(-469.53px, -157px);transform: translate(-469.53px, -157px);}#el_jykzY3yGfub{fill: #70c9cb;-webkit-transform: translate(-469.53px, -157px);transform: translate(-469.53px, -157px);}#el_oIECdK47DOC{fill: #70c9cb;-webkit-transform: translate(-469.53px, -157px);transform: translate(-469.53px, -157px);}#el_OCQySBH11Dx{fill: #70c9cb;}#el_31CFE8Wrc74{fill: #70c9cb;-webkit-transform: translate(-469.53px, -157px);transform: translate(-469.53px, -157px);}#el_YDpYF-koEtk{fill: #70c9cb;}#el_o-wEYYykmZ-{fill: #70c9cb;-webkit-transform: translate(-469.53px, -157px);transform: translate(-469.53px, -157px);}#el_WNEztn8tTGZ{fill: #70c9cb;}#el_ESoOzsdjkjT{fill: #70c9cb;-webkit-transform: translate(-469.53px, -157px);transform: translate(-469.53px, -157px);}#el_pjkzdQHLuDE{fill: #70c9cb;}#el_3_C_QWzBHqT{fill: #70c9cb;}#el_u1NptFhrivP{fill: #70c9cb;-webkit-transform: translate(-469.53px, -157px);transform: translate(-469.53px, -157px);}#el_QpZkpau_drO{fill: #70c9cb;-webkit-transform: translate(-469.53px, -157px);transform: translate(-469.53px, -157px);}#el_2jf-JqQRv-9{fill: #7a1b53;-webkit-transform: translate(-539.21px, 315.27px) rotate(-36.65deg);transform: translate(-539.21px, 315.27px) rotate(-36.65deg);}#el_lRUG41f47ls{fill: #70c9cb;}#el__rNe54f2nvY{fill: #7a1b53;-webkit-transform: translate(-499.5px, 458.08px) rotate(-47.86deg);transform: translate(-499.5px, 458.08px) rotate(-47.86deg);}#el_SpPO2ucv9XX_NR3dQR5He{-webkit-animation-name: el_SpPO2ucv9XX_NR3dQR5He_Animation;animation-name: el_SpPO2ucv9XX_NR3dQR5He_Animation;-webkit-transform-origin: 50% 50%;transform-origin: 50% 50%;transform-box: fill-box;-webkit-transform: rotate(0deg);transform: rotate(0deg);}#el_JhSx-vuz3t_X20_bEWcc{-webkit-animation-name: el_JhSx-vuz3t_X20_bEWcc_Animation;animation-name: el_JhSx-vuz3t_X20_bEWcc_Animation;-webkit-transform-origin: 50% 50%;transform-origin: 50% 50%;transform-box: fill-box;-webkit-transform: rotate(0deg);transform: rotate(0deg);}#el_UEwg_Q7-1a_iDZ1NeN1f{-webkit-animation-name: el_UEwg_Q7-1a_iDZ1NeN1f_Animation;animation-name: el_UEwg_Q7-1a_iDZ1NeN1f_Animation;-webkit-transform-origin: 50% 50%;transform-origin: 50% 50%;transform-box: fill-box;-webkit-transform: rotate(0deg);transform: rotate(0deg);}#el_zGXDhqvGdS__eEYSfC2c7{-webkit-animation-name: el_zGXDhqvGdS__eEYSfC2c7_Animation;animation-name: el_zGXDhqvGdS__eEYSfC2c7_Animation;-webkit-transform-origin: 50% 50%;transform-origin: 50% 50%;transform-box: fill-box;-webkit-transform: rotate(0deg);transform: rotate(0deg);}#el_OwiSSNfHkud_kSJVlDhMq{-webkit-animation-name: el_OwiSSNfHkud_kSJVlDhMq_Animation;animation-name: el_OwiSSNfHkud_kSJVlDhMq_Animation;-webkit-transform-origin: 50% 50%;transform-origin: 50% 50%;transform-box: fill-box;-webkit-transform: rotate(0deg);transform: rotate(0deg);}#el_AWoBafQ61vX_4RXRcP7b5{-webkit-animation-name: el_AWoBafQ61vX_4RXRcP7b5_Animation;animation-name: el_AWoBafQ61vX_4RXRcP7b5_Animation;-webkit-transform-origin: 50% 50%;transform-origin: 50% 50%;transform-box: fill-box;-webkit-transform: rotate(0deg);transform: rotate(0deg);}#el_Ft2vWoT3gGe_jNVwP7THH{-webkit-animation-name: el_Ft2vWoT3gGe_jNVwP7THH_Animation;animation-name: el_Ft2vWoT3gGe_jNVwP7THH_Animation;-webkit-transform-origin: 50% 50%;transform-origin: 50% 50%;transform-box: fill-box;-webkit-transform: rotate(0deg);transform: rotate(0deg);}#el_Cj0cguqU3Cu_nZJRuBKoGyS{-webkit-animation-name: el_Cj0cguqU3Cu_nZJRuBKoGyS_Animation;animation-name: el_Cj0cguqU3Cu_nZJRuBKoGyS_Animation;-webkit-transform-origin: 50% 50%;transform-origin: 50% 50%;transform-box: fill-box;-webkit-transform: rotate(0deg);transform: rotate(0deg);}#el_Q6QFDbhX5uC_0E5o0rDOFuW{-webkit-animation-name: el_Q6QFDbhX5uC_0E5o0rDOFuW_Animation;animation-name: el_Q6QFDbhX5uC_0E5o0rDOFuW_Animation;-webkit-transform-origin: 50% 50%;transform-origin: 50% 50%;transform-box: fill-box;-webkit-transform: rotate(0deg);transform: rotate(0deg);}#el_W0Tyb5bY58y_9bi46iLdHPv{-webkit-animation-name: el_W0Tyb5bY58y_9bi46iLdHPv_Animation;animation-name: el_W0Tyb5bY58y_9bi46iLdHPv_Animation;-webkit-transform-origin: 50% 50%;transform-origin: 50% 50%;transform-box: fill-box;-webkit-transform: rotate(0deg);transform: rotate(0deg);}#el_viV5ezXrPiS_lNj7FX80aS{-webkit-animation-name: el_viV5ezXrPiS_lNj7FX80aS_Animation;animation-name: el_viV5ezXrPiS_lNj7FX80aS_Animation;-webkit-transform-origin: 50% 50%;transform-origin: 50% 50%;transform-box: fill-box;-webkit-transform: rotate(0deg);transform: rotate(0deg);}#el_17WIY-M201b_bK2hRmynh{-webkit-animation-name: el_17WIY-M201b_bK2hRmynh_Animation;animation-name: el_17WIY-M201b_bK2hRmynh_Animation;-webkit-transform-origin: 50% 50%;transform-origin: 50% 50%;transform-box: fill-box;-webkit-transform: rotate(0deg);transform: rotate(0deg);}#el_dqzQ2RG0s8v_IxLXQk-FT{-webkit-animation-name: el_dqzQ2RG0s8v_IxLXQk-FT_Animation;animation-name: el_dqzQ2RG0s8v_IxLXQk-FT_Animation;-webkit-transform-origin: 50% 50%;transform-origin: 50% 50%;transform-box: fill-box;-webkit-transform: rotate(0deg);transform: rotate(0deg);}#el_xJNmahrLFIt_j3ejhnDp0{-webkit-animation-name: el_xJNmahrLFIt_j3ejhnDp0_Animation;animation-name: el_xJNmahrLFIt_j3ejhnDp0_Animation;-webkit-transform-origin: 50% 50%;transform-origin: 50% 50%;transform-box: fill-box;-webkit-transform: rotate(0deg);transform: rotate(0deg);}#el_dBXDco80Z_:hover *{-webkit-animation-play-state: running;animation-play-state: running;}</style>
	<defs/>
	<title>fin</title>
	<path d="M678.12,159.52A181.79,181.79,0,1,0,859.91,341.31,181.79,181.79,0,0,0,678.12,159.52Zm0,360.05A178.26,178.26,0,1,1,856.37,341.31,178.26,178.26,0,0,1,678.12,519.57Z" id="el_VunMM9sSx0"/>
	<path d="M678.12,221.92A119.39,119.39,0,1,0,797.51,341.31,119.4,119.4,0,0,0,678.12,221.92Zm0,233.71A114.32,114.32,0,1,1,792.43,341.31,114.32,114.32,0,0,1,678.12,455.63Z" id="el_d7Q7-_zK2z"/>
	<path d="M678.12,291.2a50.12,50.12,0,1,0,50.11,50.11A50.11,50.11,0,0,0,678.12,291.2Zm0,98.1a48,48,0,1,1,48-48A48,48,0,0,1,678.12,389.3Z" id="el_mKFqaqNXFQ"/>
	<polygon id="el_FkhFvituAc" points="151.52 403.96 208.58 174.39 208.58 209.59 156.38 404.25 151.52 403.96"/>
	<polygon id="el_24cLk2JBmw" points="271.12 405.48 208.58 174.39 208.58 209.59 266.86 405.48 271.12 405.48"/>
	<g data-animator-group="true" data-animator-type="1" id="el_JhSx-vuz3t_X20_bEWcc">
		<g id="el_JhSx-vuz3t">
			<g data-animator-group="true" data-animator-type="1" id="el_UEwg_Q7-1a_iDZ1NeN1f">
				<g id="el_UEwg_Q7-1a">
					<polygon id="el_12XUKHTeUT" points="34.12 314.87 77.24 316.97 76.88 317.47 34.12 316.17 34.12 314.87"/>
					<polygon id="el_y33NbwOUwM" points="25.16 293.42 55.53 275.82 88.02 293.42 25.16 293.42"/>
					<polygon id="el_3Du6mMUah6" points="55.53 275.82 36.94 293.42 46.23 293.42 55.53 275.82"/>
					<polygon id="el_OFaHUiRBKrM" points="76.42 293.42 55.53 275.82 65.14 293.42 76.42 293.42"/>
					<polygon id="el_Oe2YnB3gGy_" points="30.55 293.42 34.67 329.31 75.11 329.31 82.34 293.42 80.22 293.45 73.97 328.29 35.56 326.8 33 293.42 30.55 293.42"/>
					<polygon id="el_jpz6rxMwx01" points="30.66 294.34 81.94 295.4 82.34 293.42 30.55 293.42 30.66 294.34"/>
					<polygon id="el_9w6s_eBYtgY" points="34.12 307.96 37.04 306.58 39.71 318.39 50.35 319.24 50.35 321.37 35.33 323.83 34.12 307.96"/>
					<polygon id="el_AdYt8Ot-5Nt" points="74.89 323.17 58.22 321.37 58.22 319.13 70.78 317.96 73.22 306.58 77.24 310.03 74.89 323.17"/>
					<polygon id="el_mUBFJcgHES2" points="33.53 331.58 32.13 325.2 78.65 326.9 77.24 331.58 33.53 331.58"/>
					<polygon id="el_-2jZzOIuL6S" points="34.12 312.29 53.97 313.99 51.99 325.66 50.84 325.77 52.69 315.2 33.75 313.99 34.12 312.29"/>
					<polygon id="el_k75Aoxmtsh6" points="77.24 312.29 58.86 314.49 60.28 325.77 61.27 326.55 59.57 315.2 77.24 313.92 77.24 312.29"/>
					<polygon id="el_ilsyAUfWrJh" points="31.43 323.17 79.33 321.13 78.65 326.9 32.13 325.2 31.43 323.17"/>
				</g>
			</g>
			<g data-animator-group="true" data-animator-type="1" id="el_zGXDhqvGdS__eEYSfC2c7">
				<g id="el_zGXDhqvGdS_">
					<polygon id="el_fJn8Vx-y7r3" points="8.95 226.61 52.08 228.71 51.72 229.2 8.95 227.91 8.95 226.61"/>
					<polygon id="el_XdTsvpkxbwj" points="0 205.16 30.36 187.56 62.85 205.16 0 205.16"/>
					<polygon id="el_remr3LZEBTY" points="30.36 187.56 11.78 205.16 21.07 205.16 30.36 187.56"/>
					<polygon id="el_uIhEb1yUaCc" points="51.25 205.16 30.36 187.56 39.98 205.16 51.25 205.16"/>
					<polygon id="el_zFkB8y3ZZzd" points="5.39 205.16 9.51 241.05 49.94 241.05 57.18 205.16 55.05 205.19 48.81 240.02 10.39 238.53 7.84 205.16 5.39 205.16"/>
					<polygon id="el_BpxxPVM2EAW" points="5.5 206.08 56.78 207.14 57.18 205.16 5.39 205.16 5.5 206.08"/>
					<polygon id="el_PwF1intwPiF" points="8.95 219.7 11.88 218.31 14.54 230.13 25.18 230.98 25.18 233.1 10.17 235.57 8.95 219.7"/>
					<polygon id="el_WcDlI4RyGbP" points="49.72 234.91 33.06 233.1 33.06 230.87 45.61 229.7 48.06 218.31 52.08 221.76 49.72 234.91"/>
					<polygon id="el_GT1XwiCzZVn" points="8.37 243.32 6.97 236.94 53.49 238.64 52.08 243.32 8.37 243.32"/>
					<polygon id="el_FhNUDuQlb52" points="8.95 224.03 28.8 225.73 26.83 237.4 25.68 237.5 27.52 226.94 8.58 225.73 8.95 224.03"/>
					<polygon id="el_j8EBK3yQMc3" points="52.08 224.03 33.7 226.22 35.12 237.5 36.11 238.28 34.41 226.94 52.08 225.66 52.08 224.03"/>
					<polygon id="el_cTcDp5UjrIr" points="6.26 234.91 54.17 232.87 53.49 238.64 6.97 236.94 6.26 234.91"/>
				</g>
			</g>
			<g data-animator-group="true" data-animator-type="1" id="el_OwiSSNfHkud_kSJVlDhMq">
				<g id="el_OwiSSNfHkud">
					<polygon id="el_h1m7BPA7lkN" points="28.78 138.11 71.91 140.21 71.54 140.71 28.78 139.41 28.78 138.11"/>
					<polygon id="el_XEpghhZusyk" points="19.83 116.66 50.19 99.06 82.68 116.66 19.83 116.66"/>
					<polygon id="el_OzykwolYDel" points="50.19 99.06 31.61 116.66 40.9 116.66 50.19 99.06"/>
					<polygon id="el_S5oi65U30DS" points="71.08 116.66 50.19 99.06 59.8 116.66 71.08 116.66"/>
					<polygon id="el_IOK9M-Xc88E" points="25.22 116.66 29.33 152.55 69.77 152.55 77 116.66 74.88 116.69 68.63 151.52 30.22 150.03 27.67 116.66 25.22 116.66"/>
					<polygon id="el_sEc4o2OVqsZ" points="25.32 117.58 76.61 118.64 77 116.66 25.22 116.66 25.32 117.58"/>
					<polygon id="el_I6PWacPSIxK" points="28.78 131.2 31.7 129.82 34.37 141.63 45.01 142.48 45.01 144.61 29.99 147.07 28.78 131.2"/>
					<polygon id="el_-9qS_-BiG2r" points="69.55 146.41 52.89 144.61 52.89 142.37 65.44 141.2 67.89 129.82 71.91 133.27 69.55 146.41"/>
					<polygon id="el_D9Vo5qoDGnc" points="28.2 154.82 26.8 148.44 73.32 150.14 71.91 154.82 28.2 154.82"/>
					<polygon id="el_VtEub_nA2r-" points="28.78 135.53 48.63 137.23 46.66 148.9 45.51 149 47.35 138.44 28.41 137.23 28.78 135.53"/>
					<polygon id="el_SBGMWUvsZ7j" points="71.91 135.53 53.52 137.73 54.94 149 55.94 149.79 54.23 138.44 71.91 137.16 71.91 135.53"/>
					<polygon id="el_i_of_4jwTPS" points="26.09 144.37 75.59 144.37 73.32 150.14 26.8 148.44 26.09 144.37"/>
				</g>
			</g>
			<g data-animator-group="true" data-animator-type="1" id="el_AWoBafQ61vX_4RXRcP7b5">
				<g id="el_AWoBafQ61vX">
					<polygon id="el_RVR6NJnkvpd" points="93.78 71.53 136.91 73.63 136.54 74.13 93.78 72.83 93.78 71.53"/>
					<polygon id="el_YCBjWoWHsvH" points="84.83 50.08 115.19 32.49 147.68 50.08 84.83 50.08"/>
					<polygon id="el_4spyWbYYEY0" points="115.19 32.49 96.6 50.08 105.89 50.08 115.19 32.49"/>
					<polygon id="el_yO9et_oGn7H" points="136.08 50.08 115.19 32.49 124.8 50.08 136.08 50.08"/>
					<polygon id="el_jwCW9mdlt3s" points="90.22 50.08 94.33 85.97 134.77 85.97 142 50.08 139.88 50.11 133.63 84.95 95.22 83.46 92.66 50.08 90.22 50.08"/>
					<polygon id="el_H7tLRhAm4Ux" points="90.32 51 141.6 52.06 142 50.08 90.22 50.08 90.32 51"/>
					<polygon id="el_ur1kHrMLlQy" points="93.78 64.63 96.7 63.24 99.37 75.05 110.01 75.9 110.01 78.03 94.99 80.5 93.78 64.63"/>
					<polygon id="el_HnoUxiAveNd" points="134.55 79.83 117.88 78.03 117.88 75.8 130.44 74.63 132.89 63.24 136.91 66.69 134.55 79.83"/>
					<polygon id="el_366ajCNNO5R" points="93.19 88.25 91.79 81.86 138.31 83.56 136.91 88.25 93.19 88.25"/>
					<polygon id="el_W0kMC18ZqVb" points="93.78 68.95 113.63 70.65 111.66 82.32 110.5 82.43 112.35 71.87 93.41 70.65 93.78 68.95"/>
					<polygon id="el_bfm2zT_Kjxo" points="136.91 68.95 118.52 71.15 119.94 82.43 120.93 83.21 119.23 71.87 136.91 70.58 136.91 68.95"/>
					<polygon id="el_6IYpmPOQeE9" points="90.67 78.65 138.99 77.79 138.31 83.56 91.79 81.86 90.67 78.65"/>
				</g>
			</g>
			<g data-animator-group="true" data-animator-type="1" id="el_xJNmahrLFIt_j3ejhnDp0">
				<g id="el_xJNmahrLFIt">
					<polygon id="el_qp2X2FFmW7o" points="182.34 47.73 225.47 49.83 225.1 50.32 182.34 49.03 182.34 47.73"/>
					<polygon id="el_SO8d9FObt4c" points="173.39 26.27 203.75 8.68 236.24 26.27 173.39 26.27"/>
					<polygon id="el_2hcSa_n0nlJ" points="203.75 8.68 185.17 26.27 194.46 26.27 203.75 8.68"/>
					<polygon id="el_i3_9tV4AEoE" points="224.64 26.27 203.75 8.68 213.37 26.27 224.64 26.27"/>
					<polygon id="el_Kb8C1Lqx1Sg" points="178.78 26.27 182.9 62.17 223.33 62.17 230.57 26.27 228.44 26.3 222.2 61.14 183.78 59.65 181.23 26.27 178.78 26.27"/>
					<polygon id="el_rYapcaOdJJF" points="178.89 27.2 230.17 28.26 230.57 26.27 178.78 26.27 178.89 27.2"/>
					<polygon id="el_PXvvKmr1UgG" points="182.34 40.82 185.27 39.43 187.93 51.24 198.57 52.1 198.57 54.22 183.56 56.69 182.34 40.82"/>
					<polygon id="el_rAJ85UT1Rpu" points="223.11 56.03 206.45 54.22 206.45 51.99 219 50.82 221.45 39.43 225.47 42.88 223.11 56.03"/>
					<polygon id="el_UQpoFn9Tfaw" points="181.76 64.44 180.36 58.06 226.88 59.76 225.47 64.44 181.76 64.44"/>
					<polygon id="el_6lPhnRl5N8C" points="182.34 45.14 202.19 46.85 200.22 58.52 199.07 58.62 200.91 48.06 181.97 46.85 182.34 45.14"/>
					<polygon id="el_cfza9o8UflB" points="225.47 45.14 207.09 47.34 208.5 58.62 209.5 59.4 207.8 48.06 225.47 46.77 225.47 45.14"/>
					<polygon id="el_LWafzEFm-OQ" points="179.65 54.41 227.56 57.55 226.88 59.76 180.36 58.06 179.65 54.41"/>
				</g>
			</g>
			<g data-animator-group="true" data-animator-type="1" id="el_Ft2vWoT3gGe_jNVwP7THH">
				<g id="el_Ft2vWoT3gGe">
					<polygon id="el_3-BxPNgOReh" points="278.26 69.92 321.39 72.01 321.03 72.51 278.26 71.21 278.26 69.92"/>
					<polygon id="el_fgIXsgp_2Bw" points="269.31 48.46 299.67 30.87 332.17 48.46 269.31 48.46"/>
					<polygon id="el_aXkWLhir4mK" points="299.67 30.87 281.09 48.46 290.38 48.46 299.67 30.87"/>
					<polygon id="el_G9eQDDI17Eh" points="320.57 48.46 299.67 30.87 309.29 48.46 320.57 48.46"/>
					<polygon id="el_2DAXce9gnqs" points="274.7 48.46 278.82 84.36 319.25 84.36 326.49 48.46 324.37 48.49 318.12 83.33 279.7 81.84 277.15 48.46 274.7 48.46"/>
					<polygon id="el_2KZ-iyejA1W" points="274.81 49.39 326.09 50.45 326.49 48.46 274.7 48.46 274.81 49.39"/>
					<polygon id="el_-ReT9ByPOio" points="278.26 63.01 281.19 61.62 283.86 73.43 294.5 74.28 294.5 76.41 279.48 78.88 278.26 63.01"/>
					<polygon id="el_7zd0j4OK8Mo" points="319.04 78.21 302.37 76.41 302.37 74.18 314.93 73.01 317.37 61.62 321.39 65.07 319.04 78.21"/>
					<polygon id="el_WDdIpZlMFKS" points="277.68 86.63 276.28 80.25 322.8 81.95 321.39 86.63 277.68 86.63"/>
					<polygon id="el_K8CjFHRhapX" points="278.26 67.33 298.11 69.03 296.14 80.71 294.99 80.81 296.84 70.25 277.9 69.03 278.26 67.33"/>
					<polygon id="el_nt5z6VmcI-J" points="321.39 67.33 303.01 69.53 304.43 80.81 305.42 81.59 303.72 70.25 321.39 68.96 321.39 67.33"/>
					<polygon id="el_O-6AnDaSozy" points="276.28 75.21 323.48 76.17 322.8 81.95 276.28 80.25 276.28 75.21"/>
				</g>
			</g>
			<g data-animator-group="true" data-animator-type="1" id="el_dqzQ2RG0s8v_IxLXQk-FT">
				<g id="el_dqzQ2RG0s8v">
					<polygon id="el_7NjLBE0tGT0" points="341.48 136.05 384.61 138.15 384.25 138.64 341.48 137.34 341.48 136.05"/>
					<polygon id="el_PLYXX1I0jTX" points="332.53 114.59 362.89 97 395.38 114.59 332.53 114.59"/>
					<polygon id="el_3xWR4cEOSVz" points="362.89 97 344.31 114.59 353.6 114.59 362.89 97"/>
					<polygon id="el_Jsz_G4IRC9C" points="383.79 114.59 362.89 97 372.51 114.59 383.79 114.59"/>
					<polygon id="el_PgygQuedaOv" points="337.92 114.59 342.04 150.49 382.47 150.49 389.71 114.59 387.59 114.62 381.34 149.46 342.92 147.97 340.37 114.59 337.92 114.59"/>
					<polygon id="el_WAPK9nzK2pP" points="338.03 115.52 389.31 116.58 389.71 114.59 337.92 114.59 338.03 115.52"/>
					<polygon id="el_m9d4HeA4Soh" points="341.48 129.14 344.41 127.75 347.07 139.56 357.71 140.41 357.71 142.54 342.7 145.01 341.48 129.14"/>
					<polygon id="el_uZT4a-cFOHG" points="382.26 144.34 365.59 142.54 365.59 140.31 378.15 139.14 380.59 127.75 384.61 131.2 382.26 144.34"/>
					<polygon id="el_wKZHNv5xu3x" points="340.9 152.76 339.5 146.38 386.02 148.08 384.61 152.76 340.9 152.76"/>
					<polygon id="el_X-Bnsybc_12" points="341.48 133.46 361.33 135.17 359.36 146.84 358.21 146.94 360.06 136.38 341.12 135.17 341.48 133.46"/>
					<polygon id="el_BRTx-auXjWZ" points="384.61 133.46 366.23 135.66 367.65 146.94 368.64 147.72 366.94 136.38 384.61 135.09 384.61 133.46"/>
					<polygon id="el_7ze1_YuAOGM" points="338.8 144.34 386.7 142.3 386.02 148.08 339.5 146.38 338.8 144.34"/>
				</g>
			</g>
			<g data-animator-group="true" data-animator-type="1" id="el_17WIY-M201b_bK2hRmynh">
				<g id="el_17WIY-M201b">
					<polygon id="el_5B7YPzAumSO" points="367.24 226.61 410.36 228.71 410 229.2 367.24 227.91 367.24 226.61"/>
					<polygon id="el_bIyWdCeEI2w" points="358.28 205.16 388.64 187.56 421.14 205.16 358.28 205.16"/>
					<polygon id="el_6ZAm3_vsAS8" points="388.64 187.56 370.06 205.16 379.35 205.16 388.64 187.56"/>
					<polygon id="el_vpi0b5m87M6" points="409.54 205.16 388.64 187.56 398.26 205.16 409.54 205.16"/>
					<polygon id="el_SS5GDgPb9Hg" points="363.67 205.16 367.79 241.05 408.23 241.05 415.46 205.16 413.34 205.19 407.09 240.02 368.68 238.53 366.12 205.16 363.67 205.16"/>
					<polygon id="el_qGicnaKCunt" points="363.78 206.08 415.06 207.14 415.46 205.16 363.67 205.16 363.78 206.08"/>
					<polygon id="el_fBhzlT-D9_A" points="367.24 219.7 370.16 218.31 372.83 230.13 383.47 230.98 383.47 233.1 368.45 235.57 367.24 219.7"/>
					<polygon id="el_mugeB31Fcac" points="408.01 234.91 391.34 233.1 391.34 230.87 403.9 229.7 406.35 218.31 410.36 221.76 408.01 234.91"/>
					<polygon id="el_aNX07pJnynM" points="366.65 243.32 365.25 236.94 411.77 238.64 410.36 243.32 366.65 243.32"/>
					<polygon id="el_1gfvbxvPcTo" points="367.24 224.03 387.08 225.73 385.11 237.4 383.96 237.5 385.81 226.94 366.87 225.73 367.24 224.03"/>
					<polygon id="el_DOkIec6soW1" points="410.36 224.03 391.98 226.22 393.4 237.5 394.39 238.28 392.69 226.94 410.36 225.66 410.36 224.03"/>
					<polygon id="el_lTx8NcCut8l" points="363.93 233.14 412.45 232.87 411.77 238.64 365.25 236.94 363.93 233.14"/>
				</g>
			</g>
			<g data-animator-group="true" data-animator-type="1" id="el_viV5ezXrPiS_lNj7FX80aS">
				<g id="el_viV5ezXrPiS">
					<polygon id="el_xzmTBFoXVIy" points="352.63 304.2 395.76 306.3 395.39 306.8 352.63 305.5 352.63 304.2"/>
					<polygon id="el_xLgFIYL0c4T" points="343.68 282.75 374.04 265.15 406.53 282.75 343.68 282.75"/>
					<polygon id="el_5vPFC4WYBc-" points="374.04 265.15 355.45 282.75 364.75 282.75 374.04 265.15"/>
					<polygon id="el_ZC1i0O_SiFe" points="394.93 282.75 374.04 265.15 383.65 282.75 394.93 282.75"/>
					<polygon id="el_KjPqJbHuwF3" points="349.07 282.75 353.18 318.64 393.62 318.64 400.85 282.75 398.73 282.78 392.48 317.61 354.07 316.12 351.51 282.75 349.07 282.75"/>
					<polygon id="el_kMzQNiii_b1" points="349.17 283.67 400.45 284.73 400.85 282.75 349.07 282.75 349.17 283.67"/>
					<polygon id="el_BU1JsUtmZlb" points="352.63 297.29 355.55 295.91 358.22 307.72 368.86 308.57 368.86 310.7 353.84 313.16 352.63 297.29"/>
					<polygon id="el_Thp_A_kxwYE" points="393.4 312.5 376.73 310.7 376.73 308.46 389.29 307.29 391.74 295.91 395.76 299.36 393.4 312.5"/>
					<polygon id="el_qJ1L1WsyJQL" points="352.05 320.91 350.64 314.53 397.16 316.23 395.76 320.91 352.05 320.91"/>
					<polygon id="el_n1s0RJi8SP-" points="352.63 301.62 372.48 303.32 370.51 314.99 369.36 315.1 371.2 304.53 352.26 303.32 352.63 301.62"/>
					<polygon id="el_zBdfi86Yw-u" points="395.76 301.62 377.37 303.82 378.79 315.1 379.78 315.88 378.08 304.53 395.76 303.25 395.76 301.62"/>
					<polygon id="el_xINfrrHjWJw" points="349.94 312.5 397.36 314.53 397.16 316.23 350.64 314.53 349.94 312.5"/>
				</g>
			</g>
			<g data-animator-group="true" data-animator-type="1" id="el_W0Tyb5bY58y_9bi46iLdHPv">
				<g id="el_W0Tyb5bY58y">
					<polygon id="el_OMYvmip3Zrd" points="286.63 368.86 329.76 370.95 329.39 371.45 286.63 370.15 286.63 368.86"/>
					<polygon id="el_Xmy97n-Ohrm" points="277.68 347.4 308.04 329.81 340.53 347.4 277.68 347.4"/>
					<polygon id="el_7QF2iSz-sQ3" points="308.04 329.81 289.46 347.4 298.75 347.4 308.04 329.81"/>
					<polygon id="el_2Pcu4oc_Mda" points="328.93 347.4 308.04 329.81 317.65 347.4 328.93 347.4"/>
					<polygon id="el_YqMjmf117Or" points="283.07 347.4 287.18 383.3 327.62 383.3 334.86 347.4 332.73 347.43 326.48 382.27 288.07 380.78 285.52 347.4 283.07 347.4"/>
					<polygon id="el_bmIPYsrnmag" points="283.18 348.33 334.45 349.39 334.86 347.4 283.07 347.4 283.18 348.33"/>
					<polygon id="el_ptV77_skxkT" points="286.63 361.95 289.55 360.56 292.22 372.37 302.86 373.22 302.86 375.35 287.84 377.82 286.63 361.95"/>
					<polygon id="el_Jpf4UhVggFx" points="327.4 377.15 310.74 375.35 310.74 373.12 323.29 371.95 325.74 360.56 329.76 364.01 327.4 377.15"/>
					<polygon id="el_Oie09zVdeCN" points="286.05 385.57 284.65 379.19 331.17 380.88 329.76 385.57 286.05 385.57"/>
					<polygon id="el_TgvuvZRXL_1" points="286.63 366.27 306.48 367.97 304.51 379.65 303.36 379.75 305.2 369.19 286.26 367.97 286.63 366.27"/>
					<polygon id="el_xdcUnzNZIpY" points="329.76 366.27 311.37 368.47 312.79 379.75 313.79 380.53 312.08 369.19 329.76 367.9 329.76 366.27"/>
					<polygon id="el_DDt8zSYZWig" points="283.94 377.15 331.85 375.11 331.17 380.88 284.65 379.19 283.94 377.15"/>
				</g>
			</g>
			<g data-animator-group="true" data-animator-type="1" id="el_Q6QFDbhX5uC_0E5o0rDOFuW">
				<g id="el_Q6QFDbhX5uC">
					<polygon id="el_qxSIYNnOKhu" points="91.29 376.07 134.42 378.17 134.06 378.66 91.29 377.37 91.29 376.07"/>
					<polygon id="el_mFyjiWiHj4o" points="82.34 354.62 112.7 337.02 145.19 354.62 82.34 354.62"/>
					<polygon id="el_Am0lCim8zRN" points="112.7 337.02 94.12 354.62 103.41 354.62 112.7 337.02"/>
					<polygon id="el_x3kH5o2r7H7" points="133.59 354.62 112.7 337.02 122.31 354.62 133.59 354.62"/>
					<polygon id="el_plyZNpbtlRB" points="87.73 354.62 91.85 390.51 132.28 390.51 139.52 354.62 137.4 354.64 131.15 389.48 92.73 387.99 90.18 354.62 87.73 354.62"/>
					<polygon id="el_tdu-UclNgKM" points="87.84 355.54 139.12 356.6 139.52 354.62 87.73 354.62 87.84 355.54"/>
					<polygon id="el_AlAIDeyuT_e" points="91.29 369.16 94.22 367.77 96.88 379.59 107.53 380.44 107.53 382.56 92.51 385.03 91.29 369.16"/>
					<polygon id="el_R6CWS7sIaZQ" points="132.06 384.37 115.4 382.56 115.4 380.33 127.95 379.16 130.4 367.77 134.42 371.22 132.06 384.37"/>
					<polygon id="el_Y6HnPuxQaxw" points="90.71 392.78 89.31 386.4 135.83 388.1 134.42 392.78 90.71 392.78"/>
					<polygon id="el_5kGt45Ktc0N" points="91.29 373.49 111.14 375.19 109.17 386.86 108.02 386.96 109.87 376.4 90.92 375.19 91.29 373.49"/>
					<polygon id="el_hVgYiUjZUGw" points="134.42 373.49 116.04 375.68 117.46 386.96 118.45 387.74 116.75 376.4 134.42 375.12 134.42 373.49"/>
					<polygon id="el_iRbcnQbk2lM" points="88.6 384.37 136.27 384.37 135.83 388.1 89.31 386.4 88.6 384.37"/>
				</g>
			</g>
			<g data-animator-group="true" data-animator-type="1" id="el_Cj0cguqU3Cu_nZJRuBKoGyS">
				<g data-name="cab1" id="el_Cj0cguqU3Cu">
					<polygon id="el_5ijUbNroH4Q" points="187.29 400.07 230.42 402.17 230.06 402.66 187.29 401.37 187.29 400.07"/>
					<polygon id="el_k4kOGy2mLlo" points="178.34 378.62 208.7 361.02 241.19 378.62 178.34 378.62"/>
					<polygon id="el_7XTes8jc4i3" points="208.7 361.02 190.12 378.62 199.41 378.62 208.7 361.02"/>
					<polygon id="el_qUjnuBqQeSq" points="229.59 378.62 208.7 361.02 218.31 378.62 229.59 378.62"/>
					<polygon id="el_hDCgB3Yu_US" points="183.73 378.62 187.85 414.51 228.28 414.51 235.52 378.62 233.4 378.64 227.15 413.48 188.73 411.99 186.18 378.62 183.73 378.62"/>
					<polygon id="el_Flo0i0LwDaw" points="183.84 379.54 235.12 380.6 235.52 378.62 183.73 378.62 183.84 379.54"/>
					<polygon id="el_nW1JCGoz3Er" points="187.29 393.16 190.22 391.77 192.88 403.59 203.53 404.44 203.53 406.56 188.51 409.03 187.29 393.16"/>
					<polygon id="el_7aJHDg20VYY" points="228.06 408.37 211.4 406.56 211.4 404.33 223.96 403.16 226.4 391.77 230.42 395.22 228.06 408.37"/>
					<polygon id="el_kKrRbix7QCZ" points="186.71 416.78 185.31 410.4 231.83 412.1 230.42 416.78 186.71 416.78"/>
					<polygon id="el_8qGuN88buxx" points="187.29 397.49 207.14 399.19 205.17 410.86 204.02 410.96 205.87 400.4 186.93 399.19 187.29 397.49"/>
					<polygon id="el_2y9NlmiOh_k" points="230.42 397.49 212.04 399.68 213.46 410.96 214.45 411.74 212.75 400.4 230.42 399.12 230.42 397.49"/>
					<polygon id="el_0W78EjYnAn3" points="184.6 408.37 232.27 408.37 231.83 412.1 185.31 410.4 184.6 408.37"/>
				</g>
			</g>
		</g>
	</g>
	<g data-animator-group="true" data-animator-type="1" id="el_SpPO2ucv9XX_NR3dQR5He">
		<g id="el_SpPO2ucv9XX">
			<g id="el_ntvjETPb4HJ">
				<polygon id="el_i1_hDWdIlUR" points="386.44 182.82 208.58 182.82 208.58 184.31 386.44 187.39 386.44 182.82"/>
				<polygon id="el_-10l7p92RSa" points="31.13 182.82 208.58 182.82 208.58 184.31 30.03 188.66 31.13 182.82"/>
				<polygon id="el_YEbk-FCX1_h" points="207.84 178.88 199.37 6.06 206 6.06 210.26 178.88 207.84 178.88"/>
				<polygon id="el_Vj6bUpksqs6" points="298.11 27.93 208.58 182.82 211.74 182.82 303.01 28.94 298.11 27.93"/>
				<polygon id="el_YMOLwIES7BQ" points="361.38 94.62 211.28 180.85 216.28 185.94 361.38 98.55 361.38 94.62"/>
				<polygon id="el_A09r66f00eb" points="119.31 32.22 208.58 182.82 205.46 182.82 115.23 32.22 119.31 32.22"/>
				<polygon id="el_kZweAW-EpXS" points="52.08 94.62 208.58 182.82 208.58 185.74 50.84 101.91 52.08 94.62"/>
				<polygon id="el_QFDFTbz160b" points="204.82 189.44 206.74 362.39 211.28 362.39 211.28 190.41 204.82 189.44"/>
				<polygon id="el_JvBYh76MDZI" points="53.81 272.85 208.58 182.82 209.01 184.67 55.29 278.13 53.81 272.85"/>
				<polygon id="el_fKhUyTCMShH" points="218.53 187.39 372.96 260.14 372.48 263.53 211.28 188.66 218.53 187.39"/>
				<polygon id="el_5TjyKvLWMu1" points="304.59 329.52 208.58 188.66 211.28 188.66 311.39 329.52 304.59 329.52"/>
				<polygon id="el_ucv-0Kg2bi3" points="112.58 329.52 208.58 182.82 208.58 185.74 115.23 335.12 112.58 329.52"/>
			</g>
			<circle cx="30.33" cy="185.74" id="el_iDrFawEb03h" r="7.05"/>
			<path d="M531.78,431.2a7.06,7.06,0,1,1-7-7.06A7,7,0,0,1,531.78,431.2Z" id="el_tDu6wR0JdmT"/>
			<circle cx="30.03" cy="185.94" id="el_GqjRVzIPvPZ" r="7.05"/>
			<circle cx="49.86" cy="97.44" id="el_trGZQULjUwM" r="7.05"/>
			<path d="M591.44,187.86a7,7,0,1,1-7.05-7.05A7,7,0,0,1,591.44,187.86Z" id="el_sGKlB_IUQfN"/>
			<circle cx="203.42" cy="7.05" id="el_-fNLcHdv1gj" r="7.05"/>
			<circle cx="299.34" cy="29.24" id="el_PQOkwFiE-dF" r="7.05"/>
			<circle cx="362.56" cy="95.37" id="el_Jc4vjruEUA2" r="7.05"/>
			<path d="M864.9,342.94a7.06,7.06,0,1,1-7-7.06A7.05,7.05,0,0,1,864.9,342.94Z" id="el_yDTTcJQ4PZg"/>
			<circle cx="373.71" cy="263.53" id="el_HavFaffXpnR" r="7.05"/>
			<path d="M784.3,485.18a7.06,7.06,0,1,1-7.06-7.05A7.06,7.06,0,0,1,784.3,485.18Z" id="el_eLbz8c7s_qr"/>
			<path d="M589,492.4a7.06,7.06,0,1,1-7.05-7.06A7.05,7.05,0,0,1,589,492.4Z" id="el_vvQIkBS6SFd"/>
			<path d="M686,519.4a7.06,7.06,0,1,1-7.05-7.06A7.05,7.05,0,0,1,686,519.4Z" id="el_b9mh8Vow0lv"/>
			<path d="M585.14,492.4a3,3,0,1,1-3-3A3,3,0,0,1,585.14,492.4Z" id="el_jykzY3yGfub"/>
			<path d="M780.27,485.18a3,3,0,1,1-3-3A3,3,0,0,1,780.27,485.18Z" id="el_oIECdK47DOC"/>
			<circle cx="373.65" cy="263.53" id="el_OCQySBH11Dx" r="3.03"/>
			<path d="M861.07,342.94a3,3,0,1,1-3-3A3,3,0,0,1,861.07,342.94Z" id="el_31CFE8Wrc74"/>
			<circle cx="362.89" cy="95.37" id="el_YDpYF-koEtk" r="3.03"/>
			<path d="M771.9,186.24a3,3,0,1,1-3-3A3,3,0,0,1,771.9,186.24Z" id="el_o-wEYYykmZ-"/>
			<circle cx="203.42" cy="7.05" id="el_WNEztn8tTGZ" r="3.03"/>
			<path d="M587.4,187.87a3,3,0,1,1-3-3A3,3,0,0,1,587.4,187.87Z" id="el_ESoOzsdjkjT"/>
			<circle cx="49.86" cy="97.44" id="el_pjkzdQHLuDE" r="3.03"/>
			<circle cx="30.03" cy="185.94" id="el_3_C_QWzBHqT" r="3.03"/>
			<path d="M527.76,431.2a3,3,0,1,1-3-3A3,3,0,0,1,527.76,431.2Z" id="el_u1NptFhrivP"/>
			<path d="M681.76,519.2a3,3,0,1,1-3-3A3,3,0,0,1,681.76,519.2Z" id="el_QpZkpau_drO"/>
		</g>
	</g>
	<circle cx="678.12" cy="341.31" id="el_2jf-JqQRv-9" r="30.35"/>
	<circle cx="208.58" cy="184.31" id="el_lRUG41f47ls" r="27.99"/>
	<circle cx="678.12" cy="341.31" id="el__rNe54f2nvY" r="11.93"/>
	<script>(function(){var a=document.querySelector('#el_dBXDco80Z_'),b=a.querySelectorAll('style'),c=function(d){b.forEach(function(f){var g=f.textContent;g&amp;&amp;(f.textContent=g.replace(/transform-box:[^;\r\n]*/gi,'transform-box: '+d))})};c('initial'),window.requestAnimationFrame(function(){return c('fill-box')})})();</script>
</svg>